<?xml version="1.0" encoding="UTF-8" standalone="no"?>
<svg width="158px" height="140px" viewBox="0 0 158 140" version="1.1" xmlns="http://www.w3.org/2000/svg" xmlns:xlink="http://www.w3.org/1999/xlink">
    <!-- Generator: Sketch 43.1 (39012) - http://www.bohemiancoding.com/sketch -->
    <title>Page 1</title>
    <desc>Created with Sketch.</desc>
    <defs></defs>
    <g id="Page-1" stroke="none" stroke-width="1" fill="none" fill-rule="evenodd">
        <g id="Desktop-HD" transform="translate(-289.000000, -243.000000)" fill="#FFFFFF">
            <g id="Page-1" transform="translate(289.000000, 243.000000)">
                <path d="M157.132427,59.0850465 C157.132427,47.5116868 153.265178,36.9535342 145.937759,28.0197128 C136.574946,16.6493945 121.920109,9.54294565 108.079429,9.54294565 C100.75201,9.94902844 93.6281302,11.776401 87.3184084,14.822022 C82.229923,5.88820051 72.4600312,0 62.2830605,0 C52.3096293,0.406082794 43.3538951,5.48211771 38.0618703,13.806815 C35.8229368,17.4615601 34.3981609,21.3193467 33.7875426,25.583216 C33.5840032,26.598423 33.5840032,27.61363 33.5840032,28.4257956 C32.7698456,28.4257956 32.1592273,28.2227542 31.3450697,28.2227542 C25.8495055,28.4257956 20.7610202,30.6592509 16.8937713,34.5170375 C12.822983,38.374824 10.5840495,43.6539003 10.5840495,49.5421008 C10.5840495,52.7907632 11.3982072,56.0394255 12.822983,58.8820051 C13.0265225,59.0850465 13.0265225,59.4911293 13.2300619,59.6941707 C10.9911283,61.3185018 8.75219478,63.1458744 6.92034006,65.3793298 C2.44247296,70.8614475 0,77.3587722 0,84.6682625 C0,101.114616 12.822983,112.891017 26.0530449,114.718389 C27.4778208,126.49479 35.6193974,135.22557 44.9822104,139.083357 C37.6547915,113.703182 33.3804638,80.4043931 56.5839569,71.4705717 C60.6547452,75.3283582 66.1503094,74.5161926 66.1503094,74.5161926 C63.0972182,73.9070684 60.2476664,72.4857787 58.2122722,70.2523233 C57.601654,69.4401577 56.7874964,68.6279921 56.3804175,67.8158265 C56.1768781,67.6127851 56.1768781,67.4097437 55.9733387,67.2067023 C55.7697993,67.0036609 55.7697993,66.8006195 55.5662599,66.5975781 C55.3627205,66.3945368 55.3627205,66.1914954 55.159181,65.988454 C54.7521022,65.1762884 54.5485628,64.5671642 54.3450234,63.7549986 L54.3450234,63.5519572 C54.3450234,63.3489158 54.141484,63.1458744 54.141484,62.942833 L54.141484,62.7397916 C54.141484,62.5367502 54.141484,62.3337088 53.9379446,62.1306674 L53.9379446,61.927626 L53.9379446,61.5215432 L53.9379446,61.3185018 L53.9379446,60.7093776 L53.9379446,60.5063362 L53.9379446,59.8972121 L53.9379446,59.6941707 L53.9379446,58.8820051 L53.9379446,55.0242185 C53.9379446,46.0903971 60.4512058,38.7809068 68.5927823,38.7809068 L70.0175582,38.7809068 C78.1591348,38.7809068 84.672396,46.0903971 84.672396,55.0242185 L84.672396,56.8515911 C82.229923,59.6941707 80.6016077,63.5519572 80.6016077,67.8158265 L80.6016077,70.0492819 L80.6016077,72.8918614 C82.6370019,82.4348071 89.9644207,83.6530555 89.9644207,83.6530555 C85.6900931,81.4196001 82.6370019,76.749648 82.6370019,71.0644889 L82.6370019,70.6584061 L82.6370019,67.6127851 L82.6370019,66.5975781 C82.8405413,64.3641228 83.4511595,62.1306674 84.4688566,60.3032948 C84.672396,60.1002534 84.672396,59.6941707 84.8759354,59.4911293 L85.0794748,59.2880879 C85.2830142,59.0850465 85.2830142,58.8820051 85.4865537,58.8820051 C85.4865537,58.6789637 85.6900931,58.6789637 85.6900931,58.6789637 C85.8936325,58.4759223 85.8936325,58.4759223 85.8936325,58.2728809 L86.0971719,58.0698395 L86.5042507,57.6637567 L86.9113295,57.2576739 C87.114869,57.0546325 87.3184084,56.8515911 87.5219478,56.8515911 L87.7254872,56.8515911 L88.132566,56.4455083 C88.132566,56.4455083 88.3361054,56.4455083 88.3361054,56.2424669 C88.5396449,56.0394255 88.7431843,56.0394255 88.9467237,55.8363841 C89.1502631,55.6333427 89.3538025,55.6333427 89.5573419,55.4303013 L89.7608813,55.4303013 C89.9644207,55.4303013 90.1679602,55.2272599 90.1679602,55.2272599 L90.3714996,55.2272599 C90.575039,55.2272599 90.7785784,55.0242185 90.9821178,55.0242185 L91.1856572,55.0242185 C91.3891966,55.0242185 91.5927361,54.8211771 91.7962755,54.8211771 L91.9998149,54.8211771 C92.2033543,54.8211771 92.4068937,54.6181357 92.6104331,54.6181357 L92.8139725,54.6181357 C93.017512,54.6181357 93.2210514,54.6181357 93.4245908,54.4150943 L93.6281302,54.4150943 L94.2387484,54.4150943 L94.4422878,54.4150943 L95.2564455,54.4150943 L96.477682,54.4150943 C103.398022,54.4150943 108.893586,60.5063362 108.893586,68.2219093 L108.893586,71.4705717 L108.893586,72.2827373 L108.893586,72.4857787 L108.893586,72.8918614 L108.893586,73.0949028 L108.893586,73.5009856 L108.893586,73.704027 L108.893586,74.1101098 L108.893586,74.3131512 L108.893586,74.719234 L108.893586,74.9222754 C108.893586,75.1253168 108.893586,75.1253168 108.690047,75.3283582 L108.690047,75.5313996 C108.690047,75.734441 108.690047,75.734441 108.486507,75.9374824 L108.486507,76.1405238 C108.486507,76.3435652 108.282968,76.3435652 108.282968,76.5466066 L108.282968,76.749648 C108.282968,76.9526894 108.079429,76.9526894 108.079429,77.1557308 L108.079429,77.3587722 C108.079429,77.5618136 107.875889,77.5618136 107.875889,77.764855 L107.875889,77.9678964 C107.875889,78.1709378 107.67235,78.1709378 107.67235,78.3739792 L107.67235,78.5770206 C107.67235,78.780062 107.46881,78.780062 107.46881,78.9831034 L107.46881,79.1861447 C107.46881,79.3891861 107.265271,79.3891861 107.265271,79.5922275 L107.265271,79.7952689 L106.858192,80.2013517 L106.451113,80.6074345 L106.044034,81.0135173 C103.805101,83.2469727 100.955549,84.6682625 97.6989185,84.8713039 C97.6989185,84.8713039 104.00864,86.2925936 107.67235,82.4348071 C123.955503,87.3078006 119.884715,116.545762 113.778532,139.895522 C127.212133,133.80428 136.778486,119.997466 136.778486,104.566319 C136.778486,103.14503 136.778486,101.72374 136.574946,100.505491 C148.990851,90.7595044 157.132427,75.734441 157.132427,59.0850465" id="Fill-105"></path>
            </g>
        </g>
    </g>
</svg>