<?xml version="1.0" encoding="UTF-8" standalone="no"?>
<svg width="403px" height="140px" viewBox="0 0 403 140" version="1.1" xmlns="http://www.w3.org/2000/svg" xmlns:xlink="http://www.w3.org/1999/xlink">
    <!-- Generator: Sketch 43.1 (39012) - http://www.bohemiancoding.com/sketch -->
    <title>Logo B&amp;W eps</title>
    <desc>Created with Sketch.</desc>
    <defs></defs>
    <g id="Page-1" stroke="none" stroke-width="1" fill="none" fill-rule="evenodd">
        <g id="Desktop-HD" transform="translate(-900.000000, -243.000000)" fill="#FFFFFF">
            <g id="Logo-B&amp;W-eps" transform="translate(900.000000, 243.000000)">
                <path d="M216.725746,63.8302235 C214.676382,67.5069832 211.437933,69.7446369 207.586003,71.1950838 C207.385284,71.2709497 207.140438,71.2568715 206.918632,71.2447486 C203.993758,71.081676 201.114963,71.3256983 198.304897,72.2012849 C198.18306,72.2392179 198.050679,72.2439106 197.89643,72.2681564 C197.920641,72.1524022 197.923766,72.0890503 197.946805,72.0339106 C200.102777,66.9164804 201.487113,61.5816201 202.42198,56.1192737 C202.560609,55.3097765 202.544598,54.4079888 202.911281,53.7134637 C205.071158,49.6206145 208.210028,46.5421788 212.56688,44.8238547 C215.594456,43.6303352 218.736451,43.4 221.943659,43.7742458 C218.545885,43.037095 215.193409,43.247095 211.885841,44.2708939 C208.593112,45.29 205.759616,47.0920112 203.182681,49.6194413 C203.445881,46.2488827 203.525153,42.8634637 203.370904,39.4854749 C203.304518,38.0334637 203.290851,36.5920112 203.052643,35.1540782 C202.810141,33.6840782 202.27476,32.3681564 201.843643,30.9579888 C202.495394,33.0892737 202.723058,35.3453073 202.779291,37.6072067 C202.882774,41.783743 202.590287,45.9383799 201.866293,50.0570391 C200.563572,57.463352 197.968283,64.3558101 193.716477,70.5881564 C193.341593,71.1375978 192.943279,71.6710056 192.555509,72.2122346 C192.462569,72.0487709 192.46374,71.9467039 192.484047,71.8485475 C192.911258,69.7911732 193.40134,67.7447486 193.756699,65.6748603 C194.322148,62.3821229 194.836051,59.0788268 194.877054,55.7239106 C194.949688,49.7414525 193.917977,43.9365363 192.003336,38.2896089 C191.186012,35.8787151 190.445226,33.4752514 190.33979,30.9044134 C190.170311,26.7791061 191.077452,22.9951955 193.748498,19.7560335 C194.367056,19.0055866 195.080507,18.333743 195.750221,17.6259218 C191.747947,20.573743 189.438507,24.5645251 188.566512,29.5837989 C186.183657,24.805419 183.454035,20.4622905 180.142953,16.494581 C180.198404,16.6873743 180.297202,16.8543575 180.408105,17.0123464 C182.417638,19.8694413 184.172562,22.8747486 185.649057,26.0403911 C189.488491,34.2722346 191.332841,42.9287709 191.117283,52.0146927 C191.013409,56.4059218 190.469828,60.7424022 189.106578,64.9306704 C186.979113,71.4684358 183.869922,77.5592179 180.490891,83.5205587 C180.450279,83.5917318 180.453794,83.687933 180.436611,83.7724022 C179.803605,81.0682123 178.766817,78.6975978 177.641385,76.3578771 C177.20402,75.4486592 176.707299,74.556648 176.381619,73.6071508 C174.882475,69.2335196 174.188159,64.7327933 174.376772,60.1018436 C174.591549,54.8389385 175.975886,49.9369832 178.876939,45.5121229 C179.267443,44.9169274 179.694264,44.3475419 180.12538,43.7808939 C180.666618,43.0687709 181.619057,41.8134637 182.172792,41.1150279 C182.013466,41.1443575 181.587817,41.6664246 181.346095,41.9225698 C177.148569,46.3642458 173.17402,51.0577654 171.712755,57.0210615 C171.506178,57.8641899 171.340995,58.7163128 171.200023,59.5727374 C171.107083,60.1358659 170.599819,61.6770391 170.823578,62.1865922 C169.981651,60.2692179 169.319357,58.2036313 168.745706,56.1912291 C168.191581,54.2472626 167.796001,52.258324 167.62457,50.2427933 C167.457044,48.2761453 167.495313,46.2911173 167.75617,44.3350279 C168.01976,42.3554749 168.520386,40.415419 169.224855,38.5481006 C169.953535,36.616648 170.892306,34.777486 171.861537,32.9582682 C172.046636,32.6102235 172.220019,32.2899441 172.459008,31.977095 C172.546871,31.8621229 172.65426,31.7436313 172.70893,31.6098883 C172.556243,31.6955307 172.322722,31.8992737 172.216895,32.0271508 C170.383089,34.2452514 169.044442,36.9036872 167.819041,39.702905 C166.360899,34.9804469 163.651193,31.43 159.535672,28.9901676 C160.267477,29.6573184 161.070353,30.2603352 161.783413,30.9552514 C164.433372,33.5378212 165.84192,36.7382682 166.216022,40.3845251 C166.355823,41.7489385 166.383158,43.1489385 166.249606,44.5117877 C166.044201,46.5992737 165.633781,48.6652514 165.355352,50.7464804 C165.247963,51.5473743 165.263193,52.3650838 165.222971,53.1706704 C163.960472,51.850838 162.762797,50.5200559 161.481163,49.2756983 C158.724596,46.5996648 155.64352,44.3713966 152.135624,42.7746927 C149.580557,41.611676 146.925131,40.854581 143.982294,40.8975978 C144.209567,40.9312291 144.333357,40.9558659 144.458708,40.9672067 C148.772605,41.3504469 152.590561,42.9330726 155.927026,45.6967039 C159.371661,48.5494972 161.903297,52.1132402 163.904239,56.0680447 C164.757881,57.7554749 165.624409,59.4722346 166.167209,61.2718994 C166.882222,63.6417318 167.558965,66.0131285 168.549673,68.2863687 C169.007734,69.3371508 169.432603,70.4024022 169.908627,71.5482123 C169.74813,71.4844693 169.687211,71.4758659 169.648161,71.4422346 C167.740549,69.802905 165.514677,68.8131285 163.071685,68.3383799 C160.546297,67.8475978 157.994744,67.4893855 155.469746,66.9978212 C153.015429,66.5199441 150.696227,65.6901117 148.844457,63.9021788 C147.646001,62.7446369 146.81618,61.2781564 146.357338,59.6802793 C146.300715,59.4831844 146.335079,59.6126257 146.231205,59.2426816 C146.192936,59.1065922 146.169506,59.0659218 146.001199,58.4210615 C145.938328,58.1793855 145.898887,58.2063687 145.897715,58.1938547 C146.430362,63.9256425 150.24949,67.263743 155.401408,69.7059218 C153.120475,70.502905 151.104694,71.6299441 149.282993,73.1198883 C147.489018,74.5875419 145.196761,77.4931285 145.057351,78.355419 C145.611476,77.6956983 146.231205,76.9581564 146.850935,76.2202235 L146.853669,76.223743 C146.960667,76.0806145 147.052435,75.9234078 147.175834,75.7963128 C149.293537,73.6200559 151.867348,72.2681564 154.808233,71.5935754 C156.563547,71.1903911 158.373142,70.8118436 160.137048,71.1489385 C164.398617,71.9635196 167.868635,74.1186592 170.312798,77.7852514 C172.376611,80.8812849 173.673865,84.2987709 174.380677,87.9313408 C174.875055,90.472067 175.543598,93.0370391 175.579524,95.5992737 C175.718934,105.508771 175.636147,115.421788 175.636147,125.33324 L175.636147,126.086425 L171.923236,126.086425 L171.923236,128.638492 L185.379219,128.638492 L185.379219,126.044581 L181.656546,126.044581 L181.656546,125.212402 C181.656546,117.28324 181.649126,109.354078 181.65967,101.424916 C181.66748,95.8104469 189.187413,79.3811732 193.580972,77.5224581 C197.753506,75.7572067 203.827794,74.6094413 207.489939,74.5981006 C211.163799,74.5867598 214.73691,75.282067 218.238949,76.3629609 C219.077751,76.6222346 219.910696,76.9006704 220.745984,77.1701117 C217.854302,74.5918436 214.463167,72.9951397 210.750646,71.9967598 C210.816641,71.8974302 210.833043,71.8571508 210.86233,71.8317318 C210.940041,71.7640782 211.022047,71.7011173 211.104833,71.6397207 C214.771274,68.9058101 217.335713,64.7132402 218.411161,60.2688268 L216.725746,63.8302235" id="Fill-1"></path>
                <path d="M162.899082,0.25575419 C163.99796,0.380111732 165.098791,0.488044693 166.194935,0.631564246 C170.158549,1.15050279 173.946437,2.20480447 177.270406,4.52223464 C179.863352,6.32972067 182.042754,8.53100559 183.211532,11.5472626 C184.10149,13.8447486 183.771515,16.0405587 182.459422,18.1037989 C182.407484,18.1851397 182.334851,18.2535754 182.246597,18.3579888 C178.34273,12.1096089 172.95651,7.55178771 166.543655,4.13234637 C172.626143,7.95849162 177.609754,12.8530168 181.201609,19.1913408 C177.884278,20.0082682 174.645048,20.2057542 171.516331,18.6567598 C169.365046,17.5911173 167.977195,15.8246927 167.095437,13.6163687 C166.362461,11.7811173 165.639639,9.93882682 164.827781,8.13759777 C163.40908,4.98955307 161.454609,2.24586592 158.568785,0.25575419 L162.899082,0.25575419" id="Fill-2"></path>
                <path d="M233.24367,96.9953631 C232.017878,95.2739106 230.893617,93.5196089 229.592068,91.9084358 C227.691485,89.555419 225.321127,87.7424581 222.601267,86.4069832 C221.354779,85.794581 220.176238,85.100838 219.245668,84.0344134 C217.45716,81.9836872 217.41069,78.9885475 218.515816,76.6859777 C224.322999,79.0800559 228.302234,83.3422346 231.036542,88.8929609 C228.66345,83.1103352 225.006771,78.4606145 219.264021,75.5913966 C220.95217,74.0310615 222.730134,72.7577654 225.053241,72.5825698 C226.851512,72.4468715 228.358857,73.1785475 229.611984,74.4139106 C232.05849,76.8259777 233.416663,79.8097765 234.033268,83.153743 C234.666275,86.5888268 234.386284,90.0149162 233.854027,93.4320112 C233.665023,94.646648 233.440093,95.8558101 233.24367,96.9953631" id="Fill-3"></path>
                <path d="M122.648286,44.9802793 C127.529975,39.403352 133.177442,35.6405587 140.75556,35.8388268 C143.950663,35.9221229 146.711916,37.0722346 148.487537,39.9500559 C148.657797,40.2261453 148.791739,40.5249162 149.025261,40.9703352 C142.824059,39.7873743 136.833339,40.2758101 130.89729,41.840838 C136.98134,40.7290503 143.04157,40.6469274 149.077198,42.1618994 C147.920135,46.9437989 143.687463,51.0147486 137.466736,48.6417877 C135.584898,47.9237989 133.771008,47.027095 131.888389,46.3110615 C129.105658,45.2532402 126.219444,44.7483799 123.229356,44.9791061 C123.089165,44.9896648 122.947021,44.9802793 122.648286,44.9802793" id="Fill-4"></path>
                <path d="M219.099229,42.9749162 C220.279331,41.4313966 221.751531,40.5386034 223.542382,40.1530168 C226.287234,39.5617318 228.861045,40.2300559 231.350897,41.306648 C235.534756,43.1156983 238.54515,46.2430168 240.919804,50.0476536 C241.459481,50.9126816 241.934724,51.8183799 242.482991,52.7807821 C241.418087,52.5160335 240.47502,52.2360335 239.5136,52.0514525 C236.912063,51.5512849 234.308183,51.7182682 231.70977,52.1097207 C230.468749,52.2970391 229.234757,52.5430168 227.988268,52.6771508 C223.092131,53.2054749 219.528002,50.4003911 218.833296,45.5046927 C218.7673,45.0385475 218.732546,44.5684916 218.677484,44.049162 C224.422578,43.9994972 229.796692,45.3341899 234.958763,47.6512291 C230.036071,44.9603352 224.816986,43.2721229 219.099229,42.9749162" id="Fill-5"></path>
                <path d="M217.913659,62.4114525 C218.763005,62.3211173 219.271441,61.8870391 219.826347,61.3020112 C220.677255,60.4053073 221.016212,59.2841341 221.182567,58.1011732 C221.462949,56.1134078 220.979895,54.2648603 220.096966,52.5003911 C219.896638,52.099162 219.66585,51.7127933 219.430376,51.2865363 C219.28589,51.7475978 219.174986,52.1664246 219.023861,52.5703911 C218.615394,53.6630168 217.956224,54.6039106 217.214266,55.4912291 C216.859689,55.9151397 216.484415,56.3230168 216.148581,56.7610056 C214.829069,58.4808939 215.064152,60.4639665 216.740976,61.8467598 C216.900692,61.9781564 217.068999,62.0993855 217.250974,62.2386034 C218.585716,60.0897207 219.316739,57.762905 219.629923,55.2910056 C219.511601,57.7586034 219.112115,60.1929609 217.913659,62.4114525" id="Fill-6"></path>
                <path d="M180.782207,42.4106145 C180.588517,41.757933 180.638502,41.1564804 180.898187,40.5687151 C181.29572,39.6681006 182.014638,39.0748603 182.831572,38.5899441 C184.204974,37.774581 185.709585,37.5634078 187.275115,37.672514 C187.631255,37.6975419 187.985051,37.749162 188.370479,37.7913966 C188.076429,38.0393296 187.803077,38.2493296 187.552764,38.4843575 C186.87602,39.1198324 186.387109,39.893352 185.963413,40.7114525 C185.760741,41.1021229 185.576423,41.5029609 185.358132,41.8846369 C184.499804,43.3827933 182.972544,43.8172626 181.443721,43.0069832 C181.298063,42.9295531 181.157872,42.8427374 180.999328,42.7516201 C182.167715,41.1103352 183.65163,39.8597207 185.369847,38.8715084 C183.595397,39.7150279 182.043144,40.8487151 180.782207,42.4106145" id="Fill-7"></path>
                <path d="M145.880923,59.022905 C145.404118,58.8109497 145.078438,58.481676 144.865223,58.0370391 C144.538371,57.3558101 144.551258,56.6397765 144.675828,55.9206145 C144.885139,54.7114525 145.512288,53.7271508 146.356167,52.8664246 C146.548295,52.6708939 146.754481,52.4894413 146.971601,52.2853073 C146.969258,52.5809497 146.95559,52.8456983 146.967696,53.1088827 C147.000498,53.8210056 147.207856,54.492067 147.473398,55.1478771 C147.599922,55.4607263 147.741674,55.7684916 147.855311,56.0864246 C148.300485,57.3350838 147.79244,58.4441341 146.558057,58.933352 C146.440516,58.9802793 146.31985,59.0186034 146.187859,59.0659218 C145.813757,57.5650279 145.824691,56.0743017 146.105463,54.5773184 C145.712226,56.0351955 145.59937,57.5075419 145.880923,59.022905" id="Fill-8"></path>
                <path d="M171.276953,33.2398324 C170.797023,32.2535754 170.718532,31.283743 170.976265,30.2810615 C171.371064,28.7437989 172.357867,27.6112849 173.528988,26.6242458 C175.497518,24.9653631 177.834294,24.232514 180.352263,23.9927933 C180.924351,23.9380447 181.501125,23.9263128 182.12476,23.8922905 C181.72215,24.3639106 181.342971,24.7698324 181.007138,25.2097765 C180.098435,26.3986034 179.525175,27.7575419 179.066333,29.1700559 C178.847651,29.8446369 178.659819,30.5309497 178.41302,31.1949721 C177.443399,33.8041341 175.129273,34.897933 172.485562,34.013352 C172.234078,33.9288827 171.98806,33.8275978 171.712364,33.7243575 C173.137703,30.8070391 175.167543,28.426648 177.638651,26.4017318 C175.039457,28.2115642 172.870599,30.4241899 171.276953,33.2398324" id="Fill-9"></path>
                <path d="M202.44541,34.2651955 C201.524992,33.9828492 200.856059,33.4525698 200.367148,32.6860894 C199.617771,31.5109497 199.482657,30.1977654 199.551386,28.852514 C199.666584,26.5925698 200.596765,24.6505587 201.951422,22.8868715 C202.25953,22.4864246 202.597316,22.1082682 202.94916,21.6867039 C203.010469,22.228324 203.043662,22.7155866 203.124496,23.1950279 C203.342788,24.4917877 203.870749,25.6747486 204.502194,26.816257 C204.803272,27.3610056 205.131296,27.8928492 205.409334,28.4497207 C206.501574,30.6365363 205.81663,32.7803352 203.665344,33.9507821 C203.460329,34.0622346 203.248676,34.16 203.016717,34.2753631 C201.999454,31.6106704 201.689004,28.8787151 201.870979,26.0759777 C201.474227,28.8321788 201.594111,31.5531844 202.44541,34.2651955" id="Fill-10"></path>
                <path d="M206.642546,10.5696089 C204.283512,11.4049162 202.076384,12.5284358 199.979378,13.8732961 C197.890963,15.2122905 195.979447,16.7706704 194.211636,18.6383799 C193.842219,17.4167039 193.931254,16.2912291 194.269821,15.1810056 C194.83488,13.3297207 196.039194,11.9461453 197.560206,10.8140223 C200.811542,8.39452514 204.471734,7.21821229 208.516964,7.25927374 C210.804536,7.28273743 213.053838,7.60184358 215.335943,8.22519553 C214.740424,8.61586592 214.200358,8.94905028 213.681768,9.31351955 C211.448867,10.881676 209.774387,12.9586034 208.340066,15.2478771 C207.869899,15.9987151 207.42082,16.7632402 206.976817,17.5297207 C204.353021,22.0621229 199.705244,23.0996089 195.396815,20.1083799 C195.178523,19.9570391 194.970775,19.7900559 194.701718,19.5882682 C197.988589,15.6115642 202.080289,12.7857542 206.642546,10.5696089" id="Fill-11"></path>
                <path d="M150.274483,24.8214525 C154.204904,26.0075419 157.798711,27.8021229 160.927428,30.4871508 C158.748026,33.2801117 154.323617,34.8365363 150.885231,30.7749721 C149.873826,29.5802793 148.841724,28.3984916 147.749484,27.2788827 C146.440906,25.9375419 144.892558,24.9243017 143.132948,24.252067 C142.98729,24.1965363 142.849832,24.1198883 142.627636,24.0146927 C145.208866,22.8415084 147.813918,22.1098324 150.55955,22.1027933 C153.722632,22.0949721 156.691242,22.858324 159.182266,24.9278212 C160.61073,26.1146927 161.385099,27.6613408 161.342924,29.7226257 C157.941636,27.2507263 154.277538,25.6332961 150.274483,24.8214525" id="Fill-12"></path>
                <path d="M146.736127,76.4986592 C147.467541,77.6624581 148.155218,78.8430726 148.444972,80.213743 C148.925682,82.4897207 148.303219,84.3918436 146.617414,85.9889385 C145.392013,87.15 144.177546,88.3278771 143.03376,89.568324 C141.974323,90.7168715 141.27454,92.0977095 140.883255,93.6275419 C140.828194,93.6349721 140.773133,93.6420112 140.718072,93.6494413 C140.292422,92.272514 139.804683,90.9112291 139.454792,89.5155307 C138.720254,86.5845251 138.567567,83.643352 139.66293,80.7526257 C140.193234,79.3534078 140.903171,78.0515642 142.060624,77.0555307 C143.230964,76.0485475 144.570783,75.854581 146.109368,76.2378212 C143.572655,79.5704469 142.110999,83.2800559 141.5846,87.3639106 C141.658405,87.0713966 141.730648,86.7784916 141.805625,86.4859777 C141.882164,86.1872067 141.956359,85.8872626 142.040318,85.5900559 C142.930667,82.4349721 144.412238,79.583743 146.433877,77.0089944 C146.554933,76.8545251 146.634596,76.6679888 146.733393,76.4959218 C146.733393,76.4955307 146.736127,76.4986592 146.736127,76.4986592" id="Fill-13"></path>
                <path d="M230.723358,139.003575 C229.294504,138.572626 227.832067,138.114302 226.544185,137.383799 C223.14602,135.456648 222.896098,131.869832 225.895558,129.353352 C226.461008,128.878994 227.086985,128.469162 227.71843,128.084358 C228.331521,127.710894 228.987177,127.407821 229.652986,127.059385 C229.305828,126.853296 228.964919,126.671061 228.644705,126.457542 C226.234516,124.855754 225.99787,122.167207 228.176882,120.262737 C229.099642,119.456369 230.191101,118.843575 231.208363,118.147095 C231.355974,118.046201 231.517642,117.966425 231.74843,117.833855 C231.400882,117.641844 231.120109,117.488939 230.842071,117.331732 C227.152981,115.245419 225.731156,111.953464 225.85846,107.861397 C226.041607,101.965363 230.258267,97.9605028 236.315764,97.8596089 C238.442448,97.8240223 240.483221,98.114581 242.495487,98.8521229 C243.154267,99.0941899 243.992679,98.8775419 244.745961,98.8220112 C247.436533,98.6229609 250.126714,98.4016201 252.816505,98.1912291 C252.87469,98.1869274 252.934828,98.2088268 253.06057,98.229162 C252.529094,99.502067 252.019096,100.757374 251.468095,101.994302 C251.416939,102.110056 251.096335,102.184358 250.920999,102.155028 C249.196534,101.868771 247.475974,101.556704 245.629281,101.229385 C245.798369,101.478492 245.913177,101.649385 246.030328,101.818715 C248.662325,105.595978 248.810326,110.677039 246.336874,114.274804 C244.491353,116.95905 241.843736,118.311732 238.66152,118.701229 C237.156909,118.885419 235.660889,118.843184 234.176974,118.50648 C234.031316,118.47324 233.82552,118.47324 233.71657,118.552626 C232.844184,119.190838 232.031546,119.891229 231.676578,120.966648 C231.330591,122.015475 231.698446,122.844916 232.760226,123.155028 C233.460399,123.359944 234.214072,123.438547 234.947828,123.460447 C237.933231,123.549609 240.923319,123.541788 243.905987,123.683743 C245.106396,123.741229 246.320473,123.997374 247.48066,124.33095 C250.085321,125.078659 251.375546,126.900223 251.490354,129.622011 C251.665299,133.74419 249.49605,136.30838 246.020175,138.016927 C242.073743,139.956592 234.784598,140.228771 230.723358,139.003575 Z M231.08926,108.348659 L231.08926,108.348659 C231.338011,109.815531 231.457114,111.243296 231.836294,112.597151 C232.513818,115.011173 234.305059,116.330615 236.663312,116.368547 C239.465177,116.413911 241.199405,115.325587 242.008139,112.814581 C242.95472,109.877709 242.97034,106.883352 242.069448,103.929665 C241.438393,101.861732 240.024769,100.60838 237.838338,100.27676 C234.983755,99.8438547 232.736796,101.122626 231.90307,103.893296 C231.46922,105.33514 231.348554,106.871229 231.08926,108.348659 Z M237.200255,127.423855 L237.200255,127.423855 C237.198693,127.455922 237.19674,127.487598 237.194788,127.520056 C235.772573,127.520056 234.347624,127.567765 232.928533,127.500503 C232.194386,127.465307 231.6551,127.69095 231.201334,128.219665 C230.879559,128.594693 230.535525,128.956816 230.258267,129.363128 C228.125335,132.49162 229.294894,135.640056 232.959773,136.53324 C235.600751,137.177318 238.270235,137.188659 240.91629,136.537542 C242.630602,136.115587 244.17114,135.345196 245.270408,133.897877 C247.259635,131.277765 246.134984,128.342458 242.930118,127.748436 C242.910203,127.744916 242.889506,127.741788 242.868809,127.741006 C240.979161,127.635028 239.089513,127.529441 237.200255,127.423855 Z M0.082005814,105.321453 C0.246407946,104.226872 0.378398256,103.126034 0.582241279,102.038883 C1.4507219,97.4063687 3.45869283,93.4132402 7.20831105,90.4325698 C9.95745833,88.2477095 13.1459225,87.1593855 16.6042248,86.8723464 C22.0087984,86.4226257 27.2837248,87.257933 32.48797,88.651676 C32.6730688,88.7017318 32.9479835,88.9308939 32.9495455,89.0791061 C32.9784428,91.5326257 32.9702422,93.9857542 32.9702422,96.4818994 L29.9114254,96.4818994 C29.8200475,95.4197765 29.7021153,94.340838 29.6454922,93.2587709 C29.616595,92.711676 29.4307151,92.3730168 28.9347752,92.0891061 C26.3402674,90.605419 23.6106453,89.5589385 20.5924409,89.4693855 C15.3538314,89.3129609 11.5850785,91.7492737 8.97963663,96.1792179 C7.58983333,98.5424022 6.82444574,101.121453 6.4585436,103.820168 C5.95206008,107.554022 5.95987016,111.276927 7.01344961,114.928268 C8.29547384,119.368771 10.7939176,122.882849 15.0250271,124.948436 C18.035812,126.418045 21.2375533,126.607709 24.5037277,126.073911 C25.2546667,125.951117 25.9993576,125.785698 26.7834893,125.632793 L26.7834893,113.41095 L22.1607045,113.41095 L22.1607045,110.713408 L35.2386793,110.713408 L35.2386793,113.37419 L32.6191793,113.37419 L32.6191793,127.25257 C30.7884971,127.65419 29.0109234,128.082402 27.2177297,128.428492 C24.277626,128.995531 21.3121395,129.355698 18.3095552,129.211006 C13.7367548,128.990447 9.62435853,127.587318 6.2461095,124.381397 C3.32631202,121.611899 1.57021609,118.186983 0.725946705,114.281844 C0.477976744,113.136425 0.370588178,111.960894 0.193689922,110.799441 C0.173383721,110.663743 0.120275194,110.533911 0.082005814,110.40095 L0.082005814,105.321453 Z M402.917994,128.738212 C402.532567,128.704581 402.146749,128.67095 401.680878,128.629888 L401.680878,127.972123 C401.680878,125.762626 401.684392,123.55352 401.680097,121.344022 C401.675411,118.98905 400.083327,117.345419 397.809813,117.339944 C395.572616,117.334078 393.900479,119.023464 393.889154,121.326425 C393.877048,123.741229 393.886421,126.156425 393.886421,128.623631 L392.649304,128.623631 L392.649304,127.969385 C392.649304,125.80095 392.665315,123.632514 392.644618,121.465251 C392.62275,119.245196 391.3829,117.75838 389.32104,117.422458 C387.010038,117.045084 384.95013,118.657039 384.868905,121.01905 C384.790414,123.308715 384.840789,125.601899 384.834931,127.893911 C384.83415,128.120335 384.834931,128.345587 384.834931,128.624413 L383.63257,128.624413 L383.63257,116.453017 L384.746287,116.453017 L384.746287,118.085307 C385.972078,116.606704 387.49192,116.042011 389.314401,116.209777 C391.141178,116.377542 392.487636,117.249609 393.226078,118.960894 C393.301836,118.923743 393.349868,118.915922 393.364317,118.890112 C394.558478,116.803017 396.287238,115.936034 398.671265,116.231676 C400.76046,116.490168 402.21704,117.873743 402.819197,120.167709 C402.833255,120.220894 402.884411,120.265084 402.917994,120.313184 L402.917994,128.738212 Z M81.9109215,98.5760335 L81.9109215,103.763855 C81.9573915,103.783799 82.0030804,103.803743 82.0491599,103.823687 C82.2350397,103.57419 82.4189671,103.323128 82.6075804,103.075196 C84.3878876,100.726872 86.5801764,98.960838 89.4906017,98.222514 C91.2334205,97.7802235 93.0016221,97.6785475 94.7557655,98.082514 C97.8743295,98.8005028 100.006871,101.280615 100.531318,104.74933 C100.653936,105.561955 100.71915,106.390615 100.721493,107.212626 C100.737504,113.013631 100.730084,118.814637 100.730084,124.616034 L100.730084,125.467374 L104.71791,125.467374 L104.71791,128.196201 L91.3103498,128.196201 L91.3103498,125.522905 L95.2919273,125.522905 C95.305595,125.243296 95.3251202,125.025475 95.3255107,124.808436 C95.3270727,119.21352 95.3450359,113.618994 95.3106715,108.024078 C95.3044234,106.96 95.1771192,105.878324 94.9514079,104.838101 C94.5589516,103.024749 93.4163372,102.136648 91.5598818,101.961844 C88.8501754,101.707263 86.5571366,102.698603 84.4613023,104.292179 C81.9206841,106.224413 81.9241986,106.228715 81.9241986,109.389274 L81.9241986,124.625028 L81.9241986,125.47676 L85.9034331,125.47676 L85.9034331,128.203631 L72.491187,128.203631 L72.491187,125.496313 L76.4317616,125.496313 L76.4317616,101.263017 L72.4950921,101.263017 L72.4950921,98.5760335 L81.9109215,98.5760335 Z M189.385398,113.343687 C189.427573,110.407598 189.823934,107.545419 191.199289,104.897933 C193.26193,100.926704 196.543334,98.6503352 200.943922,98.0262011 C203.370123,97.6824581 205.800229,97.7536313 208.173321,98.451676 C212.160756,99.6252514 214.961059,102.198045 216.40358,106.049609 C218.283076,111.068492 218.295181,116.186704 216.197785,121.146145 C214.31087,125.607765 210.790478,128.108994 205.994309,128.741732 C203.094037,129.123408 200.224224,128.961117 197.499288,127.792235 C193.447029,126.053966 191.065346,122.870726 190.034025,118.673073 C189.609938,116.943799 189.492396,115.139441 189.235054,113.369106 C189.285039,113.360894 189.335414,113.352291 189.385398,113.343687 Z M211.963161,113.417598 L211.963161,113.417598 C211.897947,112.471229 211.875688,111.519777 211.760099,110.580056 C211.400835,107.652179 210.457768,104.957765 208.424024,102.745531 C205.789685,99.8813966 201.599188,99.8016201 198.848088,102.544525 C197.703912,103.685251 196.895178,105.043799 196.319966,106.540782 C195.066839,109.802626 194.930944,113.180223 195.389395,116.598883 C195.744754,119.244413 196.638227,121.685028 198.406819,123.732235 C200.44564,126.091899 203.36778,126.83648 206.051323,125.697318 C207.823429,124.944916 209.005875,123.562905 209.934884,121.93648 C211.441448,119.29838 211.926844,116.416648 211.963161,113.417598 Z M157.840105,110.669609 C157.756537,108.721341 157.810817,106.872402 157.570266,105.06257 C157.150865,101.908659 155.026134,100.33581 151.851728,100.558715 C149.883979,100.697542 148.181772,101.435475 146.69942,102.703687 C146.508073,102.867151 146.369444,103.164749 146.328831,103.419721 C146.199965,104.231564 146.128893,105.052793 146.030877,105.914693 L143.036884,105.914693 C143.020873,105.822793 142.983385,105.707039 142.982994,105.590894 C142.979089,103.980112 142.966984,102.36933 142.996271,100.75933 C143.000567,100.557151 143.184104,100.251341 143.361002,100.175475 C147.04111,98.6049721 150.84579,97.5956425 154.885162,97.9092737 C156.0227,97.9972626 157.184839,98.2139106 158.258725,98.5908939 C161.521385,99.737095 163.017796,102.289553 163.113469,105.580726 C163.250536,110.284804 163.138852,114.995531 163.182588,119.703128 C163.192741,120.830168 163.36261,121.960335 163.526232,123.078771 C163.590274,123.514022 163.795679,123.946536 164.012799,124.337989 C164.521235,125.251899 165.318644,125.614022 166.349575,125.462291 C166.614727,125.423184 166.878317,125.377039 167.218055,125.321899 C167.341845,126.277654 167.464854,127.227933 167.5863,128.169218 C163.612923,129.693575 160.173365,129.09486 158.981547,124.24648 C158.453977,124.709106 157.96038,125.161564 157.445696,125.588603 C155.530665,127.177095 153.441469,128.436704 150.933263,128.801173 C145.428329,129.602067 141.275711,126.041844 140.807888,121.675251 C140.357637,117.475642 141.943473,113.977989 146.672084,112.138827 C149.418498,111.070447 152.304712,110.782235 155.21709,110.674302 C156.037148,110.643799 156.858378,110.669609 157.840105,110.669609 Z M157.724125,113.404693 L157.724125,113.404693 C154.924993,113.361676 152.189123,113.403911 149.644209,114.631061 C147.752609,115.543799 146.706449,117.071285 146.52174,119.19514 C146.169896,123.245363 149.522763,126.086425 153.405933,124.877654 C154.776211,124.451006 156.016452,123.607486 157.318782,122.959497 C157.679998,122.78 157.774891,122.502737 157.772547,122.106201 C157.756146,119.423128 157.764737,116.739274 157.762004,114.055419 C157.762004,113.856369 157.739355,113.656927 157.724125,113.404693 Z M65.7100872,112.738715 L47.3263362,112.738715 C47.4177141,113.805531 47.4614506,114.826201 47.6000795,115.834358 C47.9468469,118.356704 48.7801822,120.68 50.5682994,122.56648 C52.390781,124.488547 54.6912393,125.194804 57.2744225,125.159609 C60.0907364,125.121676 62.717656,124.366927 65.2028227,123.071341 C65.3285649,123.005642 65.4601647,122.950894 65.7171163,122.83162 L65.7171163,124.471341 C65.7171163,124.966816 65.6694748,125.468156 65.7284409,125.956201 C65.8135707,126.663631 65.5624767,126.994078 64.8681609,127.23419 C62.0866017,128.196592 59.2616967,128.892682 56.3028488,128.920056 C49.7291066,128.979497 44.4038052,125.17486 42.4899457,118.822849 C41.0489864,114.039385 41.202064,109.253184 43.5267335,104.740726 C47.1740397,97.6609497 54.4143721,96.6860335 59.4339089,98.7750838 C62.316218,99.9752514 63.9125979,102.363073 64.8396541,105.255363 C65.6105087,107.662346 65.7448421,110.141285 65.7100872,112.738715 Z M59.947031,109.919162 L59.947031,109.919162 C60.0161502,107.834804 59.9095426,105.807542 59.1422025,103.876089 C57.7176444,100.286927 53.1190707,99.3339106 50.4042878,102.103408 C48.3010339,104.249162 48.0163566,107.06324 47.7242597,109.919162 L59.947031,109.919162 Z M133.829193,112.750838 L115.525495,112.750838 C115.565717,115.836704 115.999176,118.764972 117.736138,121.346369 C119.564086,124.061508 122.195301,125.203799 125.405243,125.159609 C128.112997,125.12324 130.653225,124.435363 133.060291,123.217207 C133.262181,123.114749 133.464853,123.013855 133.669867,122.918827 C133.701108,122.903966 133.748359,122.923128 133.843641,122.93095 C133.843641,124.160838 133.864338,125.395028 133.81943,126.627654 C133.813573,126.795028 133.508199,127.021061 133.296546,127.099665 C130.560285,128.11486 127.765058,128.836369 124.819487,128.896201 C121.506062,128.962291 118.437483,128.231006 115.760188,126.210782 C113.284784,124.342682 111.541965,121.916536 110.666846,118.936648 C109.302035,114.287709 109.352019,109.658715 111.436139,105.226816 C114.555874,98.5936313 121.019494,96.6324581 126.91376,98.5017318 C128.979525,99.1563687 130.538417,100.520782 131.668144,102.354469 C133.623397,105.526369 133.931114,109.048268 133.829193,112.750838 Z M115.88593,109.914469 L115.88593,109.914469 L128.088786,109.914469 C128.296534,107.724916 127.837301,104.886983 127.033254,103.280894 C126.4022,102.020894 125.456399,101.12419 124.079092,100.745642 C121.427961,100.017877 118.828377,101.102291 117.483091,103.501453 C116.376013,105.47514 116.072201,107.652179 115.88593,109.914469 Z M329.973042,120.105531 L333.36652,120.105531 C333.36652,121.019832 333.399713,121.920838 333.354024,122.817151 C333.32747,123.336089 333.503978,123.639553 333.933922,123.918771 C335.696657,125.065363 337.525387,126.034413 339.67472,126.170112 C341.547967,126.288603 343.295081,125.947598 344.69699,124.57419 C346.524939,122.784693 346.476907,120.063296 344.609517,118.30352 C343.645363,117.394693 342.484005,116.835475 341.277738,116.336872 C339.415035,115.56648 337.518748,114.857877 335.719697,113.957263 C333.646902,112.918212 331.870891,111.48067 330.818483,109.320838 C329.409935,106.428547 330.155797,102.752961 332.543338,100.592346 C334.516554,98.8051955 336.854891,97.9839665 339.468143,97.872905 C342.677695,97.7364246 345.784934,98.2756983 348.810949,99.3397765 C349.202624,99.4770391 349.345158,99.6518436 349.338519,100.080447 C349.310403,101.834749 349.327195,103.590223 349.325242,105.345307 C349.325242,105.52676 349.306889,105.708212 349.295173,105.923687 L345.943479,105.923687 C345.943479,105.041844 345.901695,104.176034 345.957927,103.316872 C345.996197,102.733017 345.762675,102.426816 345.28587,102.149162 C343.44933,101.077654 341.534299,100.360447 339.358802,100.611117 C336.523354,100.938827 334.593874,103.660615 335.371367,106.245922 C335.673227,107.249777 336.317168,108.02486 337.212593,108.483575 C339.13192,109.468659 341.105917,110.346983 343.049454,111.285922 C344.715344,112.089944 346.420674,112.82905 348.020178,113.750782 C352.750352,116.47648 352.15249,122.997821 348.889049,125.899888 C346.826798,127.733966 344.397864,128.629888 341.702997,128.835587 C337.816312,129.132793 334.070208,128.500056 330.477573,126.967095 C330.090193,126.801676 329.922667,126.606536 329.930086,126.155642 C329.960546,124.359497 329.942192,122.56257 329.944144,120.766425 C329.944535,120.565028 329.960936,120.363631 329.973042,120.105531 Z M277.938791,120.11257 L281.299858,120.11257 C281.299858,121.080447 281.31743,122.022514 281.291657,122.963408 C281.281894,123.333352 281.391626,123.562514 281.702858,123.774078 C283.530806,125.015307 285.446228,126.043017 287.704512,126.175978 C289.575025,126.287039 291.320578,125.922179 292.713114,124.540559 C294.598858,122.670112 294.43797,119.714469 292.2449,118.040335 C291.263173,117.291453 290.104939,116.732235 288.95842,116.249274 C286.665771,115.283743 284.284479,114.517654 282.214418,113.078939 C280.393498,111.813073 278.911145,110.278939 278.329295,108.055754 C277.497912,104.880726 278.701445,101.765531 281.511901,99.7808939 C283.119606,98.6460335 284.927639,98.0488827 286.870005,97.9092737 C290.308391,97.6617318 293.643295,98.2107821 296.875105,99.3929609 C297.040678,99.4535754 297.260532,99.6788268 297.262484,99.8297765 C297.288648,101.847654 297.279667,103.865922 297.279667,105.922514 L293.919771,105.922514 C293.919771,104.982793 293.892436,104.058715 293.931877,103.137765 C293.94984,102.700559 293.781923,102.469832 293.429689,102.256704 C291.558004,101.123408 289.595722,100.36162 287.349934,100.607989 C284.460986,100.92514 282.511201,103.735698 283.380072,106.338603 C283.674512,107.22162 284.223951,107.931006 285.010816,108.36743 C286.465052,109.17419 287.955606,109.922682 289.460998,110.630112 C291.228419,111.461117 293.030203,112.217821 294.812073,113.019106 C295.110418,113.15324 295.378694,113.355028 295.667667,113.513017 C300.910572,116.374804 300.190483,123.415084 296.373698,126.326927 C294.367289,127.857933 292.119939,128.654134 289.647268,128.837933 C285.805491,129.123408 282.101172,128.503575 278.540557,127.010894 C278.064142,126.811061 277.919656,126.55648 277.926685,126.053184 C277.956754,124.094358 277.938791,122.13514 277.938791,120.11257 Z M310.023761,101.587207 L306.074985,101.587207 L306.074985,98.5451397 L310.023761,98.5451397 L310.023761,95.7795531 C310.023761,95.0365363 310.004235,94.2919553 310.039381,93.5501117 C310.047191,93.3835196 310.220575,93.1187709 310.365061,93.0804469 C312.034465,92.6393296 313.713632,92.2337989 315.464261,91.8001117 L315.464261,98.5115084 L322.966621,98.5115084 L322.966621,101.565698 L315.467775,101.565698 L315.467775,102.281341 C315.467775,108.166425 315.453717,114.051508 315.483005,119.936592 C315.4873,120.814525 315.6107,121.71162 315.821962,122.564916 C316.459655,125.144749 318.361799,126.293687 320.952012,125.704749 C321.628364,125.551061 322.281677,125.29648 323.011529,125.068101 C323.011529,126.003128 323.022073,126.923687 322.999423,127.843855 C322.996299,127.961173 322.843222,128.137151 322.722947,128.178994 C319.469659,129.304469 316.264403,129.304078 313.280172,127.435978 C311.319062,126.209218 310.598973,124.152235 310.270169,121.972849 C310.107719,120.895866 310.03899,119.79581 310.034304,118.705531 C310.011265,113.274469 310.023761,107.84419 310.023761,102.41352 L310.023761,101.587207 Z M266.802401,125.486536 L270.799599,125.486536 L270.799599,128.205196 L257.360798,128.205196 L257.360798,125.507654 L261.342376,125.507654 L261.342376,101.258324 L257.356893,101.258324 L257.356893,98.5748603 L266.802401,98.5748603 L266.802401,125.486536 Z M368.386517,122.576648 C368.412681,118.817374 370.982197,116.193352 374.625598,116.203911 C378.266266,116.21486 380.86624,118.897542 380.834219,122.612626 C380.802198,126.351173 378.222139,128.895419 374.496341,128.862179 C370.911906,128.829721 368.361525,126.206089 368.386517,122.576648 Z M374.5885,127.640112 L374.5885,127.640112 C377.493458,127.649497 379.580702,125.578045 379.595931,122.672067 C379.611161,119.608101 377.521184,117.376313 374.622474,117.36067 C371.744851,117.345419 369.62051,119.558045 369.616605,122.575866 C369.6127,125.549106 371.656206,127.631117 374.5885,127.640112 Z M365.474921,126.165419 C365.723281,126.418045 365.97828,126.676927 366.231717,126.933855 C364.279588,129.288436 359.90985,129.437039 357.475449,127.257263 C354.954356,125.000447 354.809088,120.530615 357.178666,118.101732 C359.527937,115.692402 363.892208,115.701397 366.217268,118.12324 C365.968908,118.380559 365.720938,118.637095 365.477264,118.888547 C362.755061,116.955531 359.782936,117.031006 357.958892,119.058659 C356.327367,120.871229 356.293784,124.124078 357.886649,125.965196 C359.71616,128.079274 362.52935,128.163352 365.474921,126.165419 Z M266.77819,87.7819553 L266.77819,93.1391061 L261.426334,93.1391061 L261.426334,87.7819553 L266.77819,87.7819553 Z M352.393041,128.89933 C351.804161,128.900503 351.40858,128.521564 351.399599,127.949441 C351.391008,127.355419 351.818609,126.933855 352.414128,126.947151 C352.992855,126.960838 353.3693,127.352291 353.366176,127.937318 C353.363052,128.524693 352.985826,128.898547 352.393041,128.89933 L352.393041,128.89933 Z" id="Fill-14"></path>
            </g>
        </g>
    </g>
</svg>