<?xml version="1.0" encoding="utf-8"?>
<!-- Generator: Adobe Illustrator 19.2.1, SVG Export Plug-In . SVG Version: 6.00 Build 0)  -->
<!DOCTYPE svg PUBLIC "-//W3C//DTD SVG 1.1//EN" "http://www.w3.org/Graphics/SVG/1.1/DTD/svg11.dtd">
<svg version="1.1" id="Layer_1" xmlns="http://www.w3.org/2000/svg" xmlns:xlink="http://www.w3.org/1999/xlink" x="0px" y="0px"
	 viewBox="0 0 1153.4 189" enable-background="new 0 0 1153.4 189" xml:space="preserve">
<g>
	<path fill="#232939" d="M807.5,64.3c13.8,0,24.7,6.8,29.9,17.5l-9.3,3c-4.1-7.5-12-12-20.9-12c-15,0-26.7,12.6-26.7,29.4
		c0,16.6,12.1,29.9,26.8,29.9c9.3,0,19.2-5.8,21.4-12.6l9.3,2.8c-4,10.6-16.4,18.2-30.5,18.2c-21.3,0-37-17.5-37-38.4
		C770.7,81.3,785.8,64.3,807.5,64.3"/>
</g>
<g>
	<path fill="#232939" d="M849.6,36.1h9.6v86.4c0,5.5,3.2,8.8,8.6,8.8c2.1,0,5.2-0.6,7.6-1.6l1.7,7.8c-3.5,1.4-9.5,2.5-13.3,2.5
		c-8.7,0-14.3-5.4-14.3-14.3V36.1z"/>
</g>
<g>
	<g>
		<path fill="#232939" d="M876.8,102.6c0-20.6,15.5-38.2,36.5-38.2c21,0,36.5,17.6,36.5,38.2c0,20.5-15.4,38-36.5,38
			C891.9,140.5,876.8,123,876.8,102.6 M913.2,132.1c14.7,0,26.8-13.3,26.8-29.6s-12.1-29.6-26.7-29.6c-14.7,0-26.7,13.4-26.7,29.9
			C886.7,119.1,898.5,132.1,913.2,132.1"/>
	</g>
</g>
<g>
	<path fill="#232939" d="M962.1,108.8V65.6h9.6v41.5c0,16.8,5.6,25,17.1,25c11.4,0,22.2-7.9,26.5-20.2V65.6h9.6v61.1
		c0,2.7,1.1,4,3.5,4v8.5c-1.8,0.3-3,0.4-3.9,0.4c-4.4,0-7.9-3-7.9-6.9v-10.2c-6.5,11.4-18.2,18.1-31,18.1
		C970.2,140.5,962.1,129.7,962.1,108.8"/>
</g>
<g>
	<g>
		<path fill="#232939" d="M1038.4,102.6c0-20.7,14.1-38.2,33.6-38.2c12.4,0,22.3,7.5,27.9,16.6V36.1h9.6v90.6c0,2.7,1,4,3.4,4v8.5
			c-1.6,0.3-2.8,0.4-3.8,0.4c-4.7,0-8-3.1-8-6.9v-7.8c-5.9,9.6-16.7,15.7-27.4,15.7C1053.2,140.5,1038.4,122.3,1038.4,102.6
			 M1099.9,113.9V91.1c-3.8-10.2-15.4-18.3-25.4-18.3c-15.8,0-26.2,14.7-26.2,29.8c0,15.9,12,29.5,27.4,29.5
			C1085.4,132.1,1098.3,123.9,1099.9,113.9"/>
	</g>
</g>
<g>
	<path fill="#232939" d="M366.9,139.1h-9.6V98.1c0-17.4-4.9-25-15.7-25c-11.4,0-23.3,8.9-27,21v45h-9.6V65.6h8.7v16.7
		c5.9-10.7,18.2-17.9,31.2-17.9c16.5,0,21.9,12.4,21.9,31.7V139.1z"/>
</g>
<g>
	<path fill="#232939" d="M416.1,64.3c13.8,0,24.7,6.8,29.9,17.5l-9.3,3c-4.1-7.5-12-12-20.9-12c-15,0-26.7,12.6-26.7,29.4
		c0,16.6,12.1,29.9,26.8,29.9c9.3,0,19.2-5.8,21.4-12.6l9.3,2.8c-4,10.6-16.4,18.2-30.5,18.2c-21.3,0-37-17.5-37-38.4
		C379.2,81.3,394.3,64.3,416.1,64.3"/>
</g>
<g>
	<g>
		<path fill="#232939" d="M452.7,102.2c0-20.6,15.5-37.8,36.8-37.8c21.4,0,36.3,17.5,36.4,37.7c0,1.4-0.1,3.2-0.3,3.8h-62.8
			c1.1,15.8,13,27.4,27.1,27.4c9.7,0,19.2-5.4,22.6-13.3l8.3,2.3c-4.5,10.7-17.1,18.3-31.2,18.3C468.2,140.5,452.7,123,452.7,102.2
			 M516.7,98.5c-1.3-15.7-12.8-26.7-27.2-26.7s-26,11.1-27,26.7H516.7z"/>
	</g>
</g>
<g>
	<path fill="#232939" d="M529.1,130.8l6.7-6.4c8.2,6.8,15.8,8.5,25.5,8.5c11.7,0,19.5-5.1,19.5-13.8c0-8.2-7.3-10.4-22.2-14
		c-17.1-4.2-24.7-7.2-24.7-18.8c0-14.8,12.4-22.3,27.5-22.3c11.3,0,20.9,4.1,26.5,10l-4.7,5.6c-5.5-5.6-13.8-8.5-22.2-8.5
		c-10,0-18.1,4.1-18.1,13.7c0,7.8,5.2,9.5,18.3,12.6c18.9,4.5,28.6,8.2,28.6,20.7c0,13.4-11.3,22-28.6,22
		c-11.4,0-23.7-2.9-30.4-10.2"/>
</g>
<g>
	<path fill="#232939" d="M639,135.6c-2.3,1-8.7,4.4-16.6,4.4c-8.3,0-15.5-4.7-15.5-14.1V73.2l-10.5-0.3v-7.6l10.5,0.3V40.8h9.6v24.8
		h16.9v7.6h-16.9v50c0.4,5.4,4.2,7.9,8.9,7.9c5.4,0,10-2.5,11.1-3.2L639,135.6z"/>
</g>
<g>
	<path fill="#232939" d="M763.1,74.1c-12.8,0.4-23.1,7.5-27.1,19.3v45.7h-9.6V65.6h9v17.6c5.1-10.3,14-18.1,23.4-18.1
		c1.7,0,3.2,0,4.2,0.1V74.1z"/>
</g>
<g>
	<g>
		<path fill="#232939" d="M641.4,102.6c0-20.6,15.5-38.2,36.5-38.2c21,0,36.5,17.6,36.5,38.2c0,20.5-15.4,38-36.5,38
			C656.5,140.5,641.4,123,641.4,102.6 M677.9,132.1c14.7,0,26.8-13.3,26.8-29.6S692.5,72.8,678,72.8c-14.7,0-26.7,13.4-26.7,29.9
			C651.3,119.1,663.2,132.1,677.9,132.1"/>
	</g>
</g>
<g>
	<g>
		<path fill="#232939" d="M216.1,102.6c0-20.7,14.1-38.2,33.6-38.2c12.4,0,22.3,7.5,27.9,16.6V65.9h9.6v60.8c0,2.7,1,4,3.4,4v8.5
			c-1.6,0.3-2.8,0.4-3.8,0.4c-4.7,0-8-3.1-8-6.9v-7.8c-5.9,9.6-16.7,15.7-27.4,15.7C230.9,140.5,216.1,122.3,216.1,102.6
			 M277.6,113.9V91.1c-3.8-10.2-15.4-18.3-25.4-18.3c-15.8,0-26.2,14.7-26.2,29.8c0,15.9,12,29.5,27.4,29.5
			C263.1,132.1,276.1,123.9,277.6,113.9"/>
	</g>
</g>
<path fill="#EE376C" d="M184.5,85.5c0-11.1-3.7-21.5-10.7-30c-9.1-11-23-17.9-36.5-17.9h-0.1l-0.1,0c-7,0.3-13.8,2.1-20.1,5.1
	c-5-8.6-14.3-14.3-24.1-14.3h-0.1l-0.1,0c-9.5,0.4-18.2,5.4-23.2,13.2c-2.2,3.5-3.6,7.3-4.1,11.4c-0.1,1-0.2,1.9-0.2,2.8
	c-0.7-0.1-1.4-0.1-2.1-0.1h-0.1l-0.1,0c-5.2,0.2-10.2,2.4-13.9,6c-3.9,3.8-6,8.9-6,14.4c0,3.1,0.7,6.2,2.2,9.1
	c0.1,0.3,0.3,0.5,0.4,0.8c-2.2,1.5-4.3,3.4-6,5.5c-4.4,5.2-6.7,11.6-6.7,18.6c0,16,12.4,27.1,25.1,29c1.4,11.4,9.2,19.8,18.3,23.5
	c-7.1-24.6-11.2-56.6,11.2-65.2c4,3.7,9.3,3,9.3,3c-2.9-0.5-5.6-2-7.7-4.2v0c-0.7-0.7-1.3-1.5-1.8-2.4v0c-0.1-0.2-0.3-0.4-0.4-0.6
	c0,0,0,0,0,0c-0.1-0.2-0.2-0.4-0.3-0.6c0,0,0,0,0-0.1c-0.1-0.2-0.2-0.4-0.3-0.7c0,0,0,0,0,0c-0.3-0.7-0.6-1.4-0.8-2.2
	c0,0,0-0.1,0-0.1c-0.1-0.2-0.1-0.4-0.2-0.6c0-0.1,0-0.1-0.1-0.2c0-0.2-0.1-0.3-0.1-0.5c0-0.1,0-0.2-0.1-0.3c0-0.2-0.1-0.3-0.1-0.5
	c0-0.1,0-0.2,0-0.3c0-0.2,0-0.3-0.1-0.5c0-0.1,0-0.2,0-0.3c0-0.2,0-0.4,0-0.5c0-0.1,0-0.2,0-0.2c0-0.3,0-0.5,0-0.8v-3.8
	c0-8.7,6.3-15.7,14.2-15.7h1.4c7.8,0,14.2,7,14.2,15.7V83c-2.4,2.8-3.9,6.5-3.9,10.6v2.1c0,0,0.1,1.3,0.1,2.8
	c2,9.2,8.9,10.4,8.9,10.4c-4.1-2.1-7-6.7-7-12.1v-0.3v-2.8c0-0.3,0-0.6,0-0.9c0.1-2.2,0.8-4.3,1.8-6.1c0.1-0.3,0.3-0.5,0.4-0.7
	c0-0.1,0.1-0.2,0.2-0.3c0.1-0.1,0.2-0.3,0.3-0.4c0.1-0.1,0.1-0.2,0.2-0.3c0.1-0.1,0.2-0.2,0.3-0.4c0.1-0.1,0.2-0.2,0.3-0.3
	c0.1-0.1,0.2-0.2,0.3-0.3c0.1-0.1,0.3-0.3,0.4-0.4c0,0,0.1,0,0.1-0.1c0.2-0.2,0.3-0.3,0.5-0.5c0,0,0.1-0.1,0.1-0.1
	c0.1-0.1,0.3-0.2,0.4-0.3c0.1,0,0.1-0.1,0.2-0.1c0.2-0.1,0.4-0.3,0.5-0.4c0,0,0,0,0,0c0.2-0.1,0.4-0.2,0.6-0.4
	c0.1,0,0.1-0.1,0.2-0.1c0.2-0.1,0.3-0.2,0.5-0.2c0.1,0,0.1-0.1,0.2-0.1c0.2-0.1,0.4-0.2,0.6-0.3c0,0,0.1,0,0.1,0
	c0.2-0.1,0.4-0.1,0.5-0.2c0.1,0,0.1,0,0.2-0.1c0.2-0.1,0.4-0.1,0.6-0.1c0,0,0.1,0,0.1,0c0.2,0,0.5-0.1,0.7-0.1c0.1,0,0.1,0,0.2,0
	c0.2,0,0.4,0,0.5-0.1c0.1,0,0.1,0,0.2,0c0.2,0,0.5,0,0.7,0h1.2c6.6,0,12,6,12,13.3v3.2c0,0.2,0,0.5,0,0.7c0,0.1,0,0.1,0,0.2
	c0,0.2,0,0.3,0,0.5c0,0.1,0,0.2,0,0.2c0,0.1,0,0.3-0.1,0.4c0,0.1,0,0.2,0,0.3c0,0.1,0,0.3-0.1,0.4c0,0.1,0,0.2,0,0.2
	c0,0.1-0.1,0.3-0.1,0.4c0,0.1,0,0.2-0.1,0.2c0,0.1-0.1,0.3-0.1,0.4c0,0.1,0,0.1-0.1,0.2c0,0.1-0.1,0.3-0.1,0.4c0,0.1,0,0.1-0.1,0.2
	c-0.1,0.1-0.1,0.3-0.2,0.4c0,0.1,0,0.1-0.1,0.2c-0.1,0.1-0.1,0.3-0.2,0.4c0,0.1-0.1,0.1-0.1,0.2c-0.1,0.1-0.1,0.3-0.2,0.4
	c0,0.1-0.1,0.1-0.1,0.2c-0.1,0.1-0.2,0.3-0.2,0.4c0,0,0,0.1-0.1,0.1c-0.1,0.1-0.2,0.3-0.3,0.4c0,0,0,0.1-0.1,0.1
	c-0.1,0.1-0.2,0.3-0.3,0.4c0,0,0,0.1-0.1,0.1c-0.1,0.1-0.2,0.3-0.3,0.4c0,0,0,0.1-0.1,0.1c-0.1,0.1-0.2,0.3-0.4,0.4c0,0,0,0,0,0.1
	c-0.1,0.1-0.3,0.3-0.4,0.4c-2.1,2.2-4.9,3.6-8.1,3.7c0,0,6.1,1.4,9.6-2.3c15.7,4.7,11.8,32.9,5.8,55.5c12.9-5.9,22.1-19.2,22.1-34.1
	c0-1.3-0.1-2.7-0.2-4C176.7,116.1,184.5,101.5,184.5,85.5"/>
</svg>
