<?xml version="1.0" encoding="utf-8"?>
<!-- Generator: Adobe Illustrator 18.1.1, SVG Export Plug-In . SVG Version: 6.00 Build 0)  -->
<svg version="1.1" id="Layer_1" xmlns:sketch="http://www.bohemiancoding.com/sketch/ns"
	 xmlns="http://www.w3.org/2000/svg" xmlns:xlink="http://www.w3.org/1999/xlink" x="0px" y="0px" viewBox="-358 265 242 31"
	 enable-background="new -358 265 242 31" xml:space="preserve">
<title>Page 1</title>
<desc>Created with Sketch.</desc>
<g id="Page-1_1_" sketch:type="MSPage">
	<g id="Payment-BG-V1" transform="translate(-25.000000, -25.000000)" sketch:type="MSArtboardGroup">
		<g id="Group" transform="translate(25.000000, 22.000000)" sketch:type="MSLayerGroup">
			<g id="Page-1" transform="translate(0.000000, 3.000000)">
				<g id="Group-4" sketch:type="MSShapeGroup">
					<path id="Fill-1" fill="#477EA8" d="M-185.7,275.5c3.1,0,5.6,1.6,6.8,4l-2.1,0.7c-0.9-1.7-2.7-2.7-4.7-2.7c-3.4,0-6,2.9-6,6.7
						c0,3.8,2.7,6.9,6.1,6.9c2.1,0,4.3-1.3,4.9-2.9l2.1,0.6c-0.9,2.4-3.7,4.2-6.9,4.2c-4.8,0-8.4-4-8.4-8.8
						C-194,279.4-190.6,275.5-185.7,275.5"/>
					<path id="Stroke-3" fill="none" stroke="#467EA8" d="M-185.7,275.5c3.1,0,5.6,1.6,6.8,4l-2.1,0.7c-0.9-1.7-2.7-2.7-4.7-2.7
						c-3.4,0-6,2.9-6,6.7c0,3.8,2.7,6.9,6.1,6.9c2.1,0,4.3-1.3,4.9-2.9l2.1,0.6c-0.9,2.4-3.7,4.2-6.9,4.2c-4.8,0-8.4-4-8.4-8.8
						C-194,279.4-190.6,275.5-185.7,275.5"/>
				</g>
				<path id="Fill-5" sketch:type="MSShapeGroup" fill="#477EA8" d="M-176.2,269.1h2.2v19.8c0,1.3,0.7,2,2,2c0.5,0,1.2-0.1,1.7-0.4
					l0.4,1.8c-0.8,0.3-2.1,0.6-3,0.6c-2,0-3.2-1.2-3.2-3.3V269.1z"/>
				<path id="Stroke-7" sketch:type="MSShapeGroup" fill="none" stroke="#467EA8" d="M-176.2,269.1h2.2v19.8c0,1.3,0.7,2,2,2
					c0.5,0,1.2-0.1,1.7-0.4l0.4,1.8c-0.8,0.3-2.1,0.6-3,0.6c-2,0-3.2-1.2-3.2-3.3V269.1L-176.2,269.1z"/>
				<g id="Group-12" sketch:type="MSShapeGroup">
					<path id="Fill-9" fill="#477EA8" d="M-161.8,291.1c3.3,0,6.1-3,6.1-6.8c0-3.8-2.8-6.8-6-6.8c-3.3,0-6,3.1-6,6.9
						C-167.8,288.1-165.1,291.1-161.8,291.1 M-170,284.3c0-4.7,3.5-8.8,8.3-8.8s8.3,4,8.3,8.8c0,4.7-3.5,8.7-8.3,8.7
						C-166.6,293-170,289-170,284.3"/>
					<path id="Stroke-11" fill="none" stroke="#467EA8" d="M-161.8,291.1c3.3,0,6.1-3,6.1-6.8c0-3.8-2.8-6.8-6-6.8
						c-3.3,0-6,3.1-6,6.9C-167.8,288.1-165.1,291.1-161.8,291.1 M-170,284.3c0-4.7,3.5-8.8,8.3-8.8s8.3,4,8.3,8.8
						c0,4.7-3.5,8.7-8.3,8.7C-166.6,293-170,289-170,284.3"/>
				</g>
				<g id="Group-16" sketch:type="MSShapeGroup">
					<path id="Fill-13" fill="#477EA8" d="M-150.7,285.7v-9.9h2.2v9.5c0,3.8,1.3,5.7,3.9,5.7c2.6,0,5-1.8,6-4.6v-10.6h2.2v14
						c0,0.6,0.3,0.9,0.8,0.9v1.9c-0.4,0.1-0.7,0.1-0.9,0.1c-1,0-1.8-0.7-1.8-1.6v-2.3c-1.5,2.6-4.1,4.1-7,4.1
						C-148.8,293-150.7,290.5-150.7,285.7"/>
					<path id="Stroke-15" fill="none" stroke="#467EA8" d="M-150.7,285.7v-9.9h2.2v9.5c0,3.8,1.3,5.7,3.9,5.7c2.6,0,5-1.8,6-4.6
						v-10.6h2.2v14c0,0.6,0.3,0.9,0.8,0.9v1.9c-0.4,0.1-0.7,0.1-0.9,0.1c-1,0-1.8-0.7-1.8-1.6v-2.3c-1.5,2.6-4.1,4.1-7,4.1
						C-148.8,293-150.7,290.5-150.7,285.7"/>
				</g>
				<g id="Group-20" sketch:type="MSShapeGroup">
					<path id="Fill-17" fill="#477EA8" d="M-119.4,286.9v-5.2c-0.9-2.3-3.5-4.2-5.8-4.2c-3.6,0-5.9,3.4-5.9,6.8
						c0,3.7,2.7,6.8,6.2,6.8C-122.7,291.1-119.8,289.2-119.4,286.9 M-133.4,284.3c0-4.8,3.2-8.8,7.6-8.8c2.8,0,5.1,1.7,6.3,3.8
						v-10.3h2.2v20.8c0,0.6,0.2,0.9,0.8,0.9v1.9c-0.4,0.1-0.6,0.1-0.9,0.1c-1.1,0-1.8-0.7-1.8-1.6v-1.8c-1.3,2.2-3.8,3.6-6.2,3.6
						C-130,293-133.4,288.8-133.4,284.3"/>
					<path id="Stroke-19" fill="none" stroke="#467EA8" d="M-119.4,286.9v-5.2c-0.9-2.3-3.5-4.2-5.8-4.2c-3.6,0-5.9,3.4-5.9,6.8
						c0,3.7,2.7,6.8,6.2,6.8C-122.7,291.1-119.8,289.2-119.4,286.9 M-133.4,284.3c0-4.8,3.2-8.8,7.6-8.8c2.8,0,5.1,1.7,6.3,3.8
						v-10.3h2.2v20.8c0,0.6,0.2,0.9,0.8,0.9v1.9c-0.4,0.1-0.6,0.1-0.9,0.1c-1.1,0-1.8-0.7-1.8-1.6v-1.8c-1.3,2.2-3.8,3.6-6.2,3.6
						C-130,293-133.4,288.8-133.4,284.3"/>
				</g>
				<path id="Fill-21" sketch:type="MSShapeGroup" fill="#477EA8" d="M-284.2,292.7h-2.2v-9.4c0-4-1.1-5.7-3.5-5.7
					c-2.6,0-5.3,2-6.1,4.8v10.3h-2.2v-16.9h2v3.8c1.3-2.5,4.1-4.1,7.1-4.1c3.7,0,5,2.8,5,7.3V292.7z"/>
				<path id="Stroke-23" sketch:type="MSShapeGroup" fill="none" stroke="#467EA8" d="M-284.2,292.7h-2.2v-9.4c0-4-1.1-5.7-3.5-5.7
					c-2.6,0-5.3,2-6.1,4.8v10.3h-2.2v-16.9h2v3.8c1.3-2.5,4.1-4.1,7.1-4.1c3.7,0,5,2.8,5,7.3V292.7L-284.2,292.7z"/>
				<g id="Group-28" sketch:type="MSShapeGroup">
					<path id="Fill-25" fill="#477EA8" d="M-273.1,275.5c3.1,0,5.6,1.6,6.8,4l-2.1,0.7c-0.9-1.7-2.7-2.7-4.7-2.7c-3.4,0-6,2.9-6,6.7
						c0,3.8,2.7,6.9,6.1,6.9c2.1,0,4.3-1.3,4.9-2.9l2.1,0.6c-0.9,2.4-3.7,4.2-6.9,4.2c-4.8,0-8.4-4-8.4-8.8
						C-281.4,279.4-278,275.5-273.1,275.5"/>
					<path id="Stroke-27" fill="none" stroke="#467EA8" d="M-273.1,275.5c3.1,0,5.6,1.6,6.8,4l-2.1,0.7c-0.9-1.7-2.7-2.7-4.7-2.7
						c-3.4,0-6,2.9-6,6.7c0,3.8,2.7,6.9,6.1,6.9c2.1,0,4.3-1.3,4.9-2.9l2.1,0.6c-0.9,2.4-3.7,4.2-6.9,4.2c-4.8,0-8.4-4-8.4-8.8
						C-281.4,279.4-278,275.5-273.1,275.5"/>
				</g>
				<path id="Fill-29" sketch:type="MSShapeGroup" fill="#477EA8" d="M-250.3,283.4c-0.3-3.6-2.9-6.1-6.2-6.1
					c-3.3,0-5.9,2.6-6.1,6.1H-250.3z M-264.8,284.2c0-4.7,3.5-8.7,8.3-8.7c4.9,0,8.2,4,8.2,8.6c0,0.3,0,0.7-0.1,0.9h-14.2
					c0.3,3.6,2.9,6.3,6.1,6.3c2.2,0,4.3-1.2,5.1-3l1.9,0.5c-1,2.5-3.9,4.2-7.1,4.2C-261.3,293-264.8,289-264.8,284.2L-264.8,284.2z"
					/>
				<path id="Stroke-31" sketch:type="MSShapeGroup" fill="none" stroke="#467EA8" d="M-250.3,283.4c-0.3-3.6-2.9-6.1-6.2-6.1
					c-3.3,0-5.9,2.6-6.1,6.1H-250.3L-250.3,283.4z M-264.8,284.2c0-4.7,3.5-8.7,8.3-8.7c4.9,0,8.2,4,8.2,8.6c0,0.3,0,0.7-0.1,0.9
					h-14.2c0.3,3.6,2.9,6.3,6.1,6.3c2.2,0,4.3-1.2,5.1-3l1.9,0.5c-1,2.5-3.9,4.2-7.1,4.2C-261.3,293-264.8,289-264.8,284.2
					L-264.8,284.2z"/>
				<g id="Group-36" sketch:type="MSShapeGroup">
					<path id="Fill-33" fill="#477EA8" d="M-247.2,290.7l1.3-1.4c1.9,1.6,3.6,2,5.8,2c2.7,0,4.4-1.2,4.4-3.2c0-1.9-1.7-2.4-5-3.2
						c-3.9-1-5.6-1.6-5.6-4.3c0-3.4,2.8-5.1,6.2-5.1c2.6,0,4.7,0.9,6,2.3l-1.1,1.3c-1.2-1.3-3.1-1.9-5-1.9c-2.3,0-4.1,0.9-4.1,3.1
						c0,1.8,1.2,2.2,4.2,2.9c4.3,1,6.5,1.9,6.5,4.8c0,3.1-2.6,5-6.5,5c-2.6,0-5.4-0.7-6.9-2.3"/>
					<path id="Stroke-35" fill="none" stroke="#467EA8" d="M-247.5,290.8l1.6-1.5c1.9,1.6,3.6,2,5.8,2c2.7,0,4.4-1.2,4.4-3.2
						c0-1.9-1.7-2.4-5-3.2c-3.9-1-5.6-1.6-5.6-4.3c0-3.4,2.8-5.1,6.2-5.1c2.6,0,4.7,0.9,6,2.3l-1.1,1.3c-1.2-1.3-3.1-1.9-5-1.9
						c-2.3,0-4.1,0.9-4.1,3.1c0,1.8,1.2,2.2,4.2,2.9c4.3,1,6.5,1.9,6.5,4.8c0,3.1-2.6,5-6.5,5c-2.6,0-5.4-0.7-6.9-2.3"/>
				</g>
				<path id="Fill-37" sketch:type="MSShapeGroup" fill="#477EA8" d="M-222.5,291.9c-0.5,0.2-2,1-3.8,1c-1.9,0-3.5-1.1-3.5-3.2
					v-12.1l-2.4-0.1v-1.7l2.4,0.1v-5.7h2.2v5.7h3.8v1.7h-3.8V289c0.1,1.2,1,1.8,2,1.8c1.2,0,2.3-0.6,2.5-0.7L-222.5,291.9z"/>
				<path id="Stroke-39" sketch:type="MSShapeGroup" fill="none" stroke="#467EA8" d="M-222.5,291.9c-0.5,0.2-2,1-3.8,1
					c-1.9,0-3.5-1.1-3.5-3.2v-12.1l-2.4-0.1v-1.7l2.4,0.1v-5.7h2.2v5.7h3.8v1.7h-3.8V289c0.1,1.2,1,1.8,2,1.8c1.2,0,2.3-0.6,2.5-0.7
					L-222.5,291.9L-222.5,291.9z"/>
				<path id="Fill-41" sketch:type="MSShapeGroup" fill="#477EA8" d="M-194.4,277.8c-2.9,0.1-5.2,1.7-6.1,4.4v10.5h-2.2v-16.9h2v4
					c1.2-2.4,3.2-4.1,5.3-4.1c0.4,0,0.7,0,1,0V277.8z"/>
				<path id="Stroke-43" sketch:type="MSShapeGroup" fill="none" stroke="#467EA8" d="M-194.4,277.8c-2.9,0.1-5.2,1.7-6.1,4.4v10.5
					h-2.2v-16.9h2v4c1.2-2.4,3.2-4.1,5.3-4.1c0.4,0,0.7,0,1,0V277.8L-194.4,277.8z"/>
				<g id="Group-48" sketch:type="MSShapeGroup">
					<path id="Fill-45" fill="#477EA8" d="M-213.7,291.1c3.3,0,6.1-3,6.1-6.8c0-3.8-2.8-6.8-6-6.8c-3.3,0-6,3.1-6,6.9
						C-219.8,288.1-217.1,291.1-213.7,291.1 M-222,284.3c0-4.7,3.5-8.8,8.3-8.8s8.3,4,8.3,8.8c0,4.7-3.5,8.7-8.3,8.7
						C-218.6,293-222,289-222,284.3"/>
					<path id="Stroke-47" fill="none" stroke="#467EA8" d="M-213.7,291.1c3.3,0,6.1-3,6.1-6.8c0-3.8-2.8-6.8-6-6.8
						c-3.3,0-6,3.1-6,6.9C-219.8,288.1-217.1,291.1-213.7,291.1 M-222,284.3c0-4.7,3.5-8.8,8.3-8.8s8.3,4,8.3,8.8
						c0,4.7-3.5,8.7-8.3,8.7C-218.6,293-222,289-222,284.3"/>
				</g>
				<g id="Group-52" sketch:type="MSShapeGroup">
					<path id="Fill-49" fill="#477EA8" d="M-304.4,286.9v-5.2c-0.9-2.3-3.5-4.2-5.8-4.2c-3.6,0-5.9,3.4-5.9,6.8
						c0,3.7,2.7,6.8,6.2,6.8C-307.7,291.1-304.8,289.2-304.4,286.9 M-318.4,284.3c0-4.8,3.2-8.8,7.6-8.8c2.8,0,5.1,1.7,6.3,3.8v-3.5
						h2.2v13.9c0,0.6,0.2,0.9,0.8,0.9v1.9c-0.4,0.1-0.6,0.1-0.9,0.1c-1.1,0-1.8-0.7-1.8-1.6v-1.8c-1.3,2.2-3.8,3.6-6.2,3.6
						C-315,293-318.4,288.8-318.4,284.3"/>
					<path id="Stroke-51" fill="none" stroke="#467EA8" d="M-304.4,286.9v-5.2c-0.9-2.3-3.5-4.2-5.8-4.2c-3.6,0-5.9,3.4-5.9,6.8
						c0,3.7,2.7,6.8,6.2,6.8C-307.7,291.1-304.8,289.2-304.4,286.9 M-318.4,284.3c0-4.8,3.2-8.8,7.6-8.8c2.8,0,5.1,1.7,6.3,3.8v-3.5
						h2.2v13.9c0,0.6,0.2,0.9,0.8,0.9v1.9c-0.4,0.1-0.6,0.1-0.9,0.1c-1.1,0-1.8-0.7-1.8-1.6v-1.8c-1.3,2.2-3.8,3.6-6.2,3.6
						C-315,293-318.4,288.8-318.4,284.3"/>
				</g>
				<g id="Group-55">
					<g id="Clip-54">
					</g>
					<defs>
						<filter id="Adobe_OpacityMaskFilter" filterUnits="userSpaceOnUse" x="-358" y="265.1" width="34.4" height="30.9">
							<feColorMatrix  type="matrix" values="1 0 0 0 0  0 1 0 0 0  0 0 1 0 0  0 0 0 1 0"/>
						</filter>
					</defs>
					<mask maskUnits="userSpaceOnUse" x="-358" y="265.1" width="34.4" height="30.9" id="mask-2">
						<g filter="url(#Adobe_OpacityMaskFilter)">
							<path id="path-1" fill="#FFFFFF" d="M-358,265.1h241.7V296H-358"/>
						</g>
					</mask>
					<path id="Fill-53" sketch:type="MSShapeGroup" mask="url(#mask-2)" fill="#CA4685" d="M-323.6,278.2c0-2.5-0.8-4.9-2.4-6.9
						c-2.1-2.5-5.2-4.1-8.3-4.1h0l0,0c-1.6,0.1-3.1,0.5-4.5,1.2c-1.1-2-3.2-3.3-5.5-3.3h0l0,0c-2.2,0.1-4.1,1.2-5.3,3
						c-0.5,0.8-0.8,1.7-0.9,2.6c0,0.2,0,0.4-0.1,0.6c-0.2,0-0.3,0-0.5,0h0l0,0c-1.2,0.1-2.3,0.5-3.2,1.4c-0.9,0.9-1.4,2-1.4,3.3
						c0,0.7,0.2,1.4,0.5,2.1c0,0.1,0.1,0.1,0.1,0.2c-0.5,0.4-1,0.8-1.4,1.3c-1,1.2-1.5,2.7-1.5,4.3c0,3.7,2.8,6.2,5.7,6.6
						c0.3,2.6,2.1,4.5,4.1,5.4c-1.6-5.6-2.5-13,2.5-14.9c0.9,0.9,2.1,0.7,2.1,0.7c-0.7-0.1-1.3-0.5-1.7-1l0,0
						c-0.2-0.2-0.3-0.3-0.4-0.5v0c0,0-0.1-0.1-0.1-0.1c0,0,0,0,0,0c0,0-0.1-0.1-0.1-0.1c0,0,0,0,0,0c0,0,0-0.1-0.1-0.2c0,0,0,0,0,0
						c-0.1-0.2-0.1-0.3-0.2-0.5c0,0,0,0,0,0c0,0,0-0.1,0-0.1c0,0,0,0,0-0.1c0,0,0-0.1,0-0.1c0,0,0,0,0-0.1c0,0,0-0.1,0-0.1
						c0,0,0,0,0-0.1c0,0,0-0.1,0-0.1c0,0,0,0,0-0.1c0,0,0-0.1,0-0.1c0,0,0,0,0-0.1c0-0.1,0-0.1,0-0.2v-0.9c0-2,1.4-3.6,3.2-3.6h0.3
						c1.8,0,3.2,1.6,3.2,3.6v0.4c-0.5,0.6-0.9,1.5-0.9,2.4v0.5c0,0,0,0.3,0,0.6c0.4,2.1,2,2.4,2,2.4c-0.9-0.5-1.6-1.5-1.6-2.8v-0.1
						V280c0-0.1,0-0.1,0-0.2c0-0.5,0.2-1,0.4-1.4c0-0.1,0.1-0.1,0.1-0.2c0,0,0,0,0-0.1c0,0,0-0.1,0.1-0.1c0,0,0,0,0.1-0.1
						c0,0,0-0.1,0.1-0.1c0,0,0,0,0.1-0.1c0,0,0-0.1,0.1-0.1c0,0,0.1-0.1,0.1-0.1c0,0,0,0,0,0c0,0,0.1-0.1,0.1-0.1c0,0,0,0,0,0
						c0,0,0.1-0.1,0.1-0.1c0,0,0,0,0,0c0,0,0.1-0.1,0.1-0.1c0,0,0,0,0,0c0,0,0.1-0.1,0.1-0.1c0,0,0,0,0,0c0,0,0.1,0,0.1-0.1
						c0,0,0,0,0,0c0,0,0.1,0,0.1-0.1c0,0,0,0,0,0c0,0,0.1,0,0.1,0c0,0,0,0,0,0c0,0,0.1,0,0.1,0c0,0,0,0,0,0c0.1,0,0.1,0,0.2,0
						c0,0,0,0,0,0c0,0,0.1,0,0.1,0c0,0,0,0,0,0c0.1,0,0.1,0,0.2,0h0.3c1.5,0,2.7,1.4,2.7,3.1v0.7c0,0.1,0,0.1,0,0.2c0,0,0,0,0,0
						c0,0,0,0.1,0,0.1c0,0,0,0,0,0.1c0,0,0,0.1,0,0.1c0,0,0,0,0,0.1c0,0,0,0.1,0,0.1c0,0,0,0,0,0.1c0,0,0,0.1,0,0.1c0,0,0,0,0,0.1
						c0,0,0,0.1,0,0.1c0,0,0,0,0,0c0,0,0,0.1,0,0.1c0,0,0,0,0,0c0,0,0,0.1,0,0.1c0,0,0,0,0,0c0,0,0,0.1,0,0.1c0,0,0,0,0,0
						c0,0,0,0.1,0,0.1c0,0,0,0,0,0c0,0,0,0.1-0.1,0.1c0,0,0,0,0,0c0,0,0,0.1-0.1,0.1c0,0,0,0,0,0c0,0,0,0.1-0.1,0.1c0,0,0,0,0,0
						c0,0,0,0.1-0.1,0.1c0,0,0,0,0,0c0,0-0.1,0.1-0.1,0.1c0,0,0,0,0,0c0,0-0.1,0.1-0.1,0.1c-0.5,0.5-1.1,0.8-1.8,0.8
						c0,0,1.4,0.3,2.2-0.5c3.6,1.1,2.7,7.5,1.3,12.7c2.9-1.4,5-4.4,5-7.8c0-0.3,0-0.6,0-0.9C-325.4,285.2-323.6,281.8-323.6,278.2"
						/>
				</g>
			</g>
		</g>
	</g>
</g>
</svg>
