<?xml version="1.0" encoding="utf-8"?>
<!-- Generator: Adobe Illustrator 19.2.1, SVG Export Plug-In . SVG Version: 6.00 Build 0)  -->
<!DOCTYPE svg PUBLIC "-//W3C//DTD SVG 1.1//EN" "http://www.w3.org/Graphics/SVG/1.1/DTD/svg11.dtd">
<svg version="1.1" id="Layer_1" xmlns="http://www.w3.org/2000/svg" xmlns:xlink="http://www.w3.org/1999/xlink" x="0px" y="0px"
	 viewBox="0 0 189 148.5" enable-background="new 0 0 189 148.5" xml:space="preserve">
<g>
	<g>
		<g>
			<polygon points="75.1,80.2 82,58 67.6,46.9 30.2,83.5 70.4,83.5 75.1,80.3 			"/>
			<polygon points="121.4,46.9 107,58 113.9,80.3 118.6,83.5 158.8,83.5 			"/>
		</g>
		<g>
			<polygon points="114.7,34.3 99.5,34.2 94.5,19.6 89.6,34.2 74.3,34.3 86.5,43.6 82,58 94.5,49.5 107,58 102.5,43.6 			"/>
			<polygon points="94.6,67.1 94.5,67 70.4,83.5 118.6,83.5 			"/>
		</g>
	</g>
	<g>
		<path d="M15.3,101.6v-2.3h3.9v-5.1l2.9-1.3v6.3h5v2.3h-5v15.7c0,3.3,0.3,4,2.7,4c1,0,1.7,0,2.3-0.1v2.5c-0.9,0.1-1.8,0.1-2.8,0.1
			c-3.9,0-5.1-1.8-5.1-4.8v-17.5H15.3z"/>
		<path d="M33.2,112.2v1.9c0,3.4,0.9,7.9,5.5,7.9c3.6,0,5.4-2.3,5.4-5.6h3.1c-0.3,5.9-3.5,8-8.5,8c-4.2,0-8.5-1.7-8.5-9.1v-6
			c0-7.1,3-10.4,8.5-10.4c8.5,0,8.5,6.1,8.5,13.4H33.2z M44.3,109.8c0-5.4-0.9-8.7-5.5-8.7c-4.7,0-5.5,3.3-5.5,8.7H44.3z"/>
		<path d="M63.5,106.3c0.1-3.1-1-5.2-4.3-5.2c-1.8,0-3.3,1-3.9,2.8c-0.4,1.1-0.7,4.5-0.7,7.7c0,4.4,0,10.3,4.5,10.3
			c3.8,0,4.3-2.4,4.5-5.4h2.9c0.2,6.6-4.4,7.7-6.7,7.7c-8.3,0-8.3-6.6-8.3-12.6c0-2.4,0.1-6.3,0.7-8.1c1.3-3.5,4-4.8,7.4-4.8
			c4.2,0,7.1,2.4,6.9,7.5H63.5z"/>
		<path d="M71.4,123.8V88.7h2.9v13.6h0.1c1.4-2,3.3-3.5,5.9-3.5c6.1,0,6.7,4.5,6.7,7.7v17.3h-2.9v-17.2c0-2.9-1.1-5.5-4.5-5.5
			c-2.6,0-5.3,1.8-5.3,7.3v15.4H71.4z"/>
		<path d="M99.5,124.3c-5.3,0-7.4-2.6-7.3-7.8h3c0,3.4,0.8,5.6,4.5,5.6c2.8,0,4.2-1.6,4.2-4.3c0-6.4-11-4.8-11-12.9
			c0-4.5,3.1-6.1,7.4-6.1c4.9,0,6.4,3.4,6.4,7.1h-2.9c-0.1-3.1-1-4.8-4.3-4.8c-2.1,0-3.7,1.4-3.7,3.5c0,6.1,11,4.5,11,12.7
			C106.8,122,104.1,124.3,99.5,124.3z"/>
		<path d="M109.7,101.6v-2.3h3.9v-5.1l2.9-1.3v6.3h5v2.3h-5v15.7c0,3.3,0.3,4,2.7,4c1,0,1.7,0,2.3-0.1v2.5c-0.9,0.1-1.8,0.1-2.8,0.1
			c-3.9,0-5.1-1.8-5.1-4.8v-17.5H109.7z"/>
		<path d="M138.1,120.8L138.1,120.8c-1.7,2.3-4,3.5-7,3.5c-4.4,0-6.8-3-6.8-7.2c0-8.6,8.7-7.7,13.6-8.1v-2c0-3.6-1.1-5.8-5-5.8
			c-2.7,0-4.8,1.3-4.8,4.2H125c0.2-4.7,3.9-6.6,8.2-6.6c2.5,0,7.6,0.2,7.6,6.5v12.3c0,1.7,0,3.3,0.3,6.2h-3V120.8z M137.9,111.3
			c-4.2,0.1-10.5-0.3-10.5,5.6c0,2.8,1.4,5.1,4.4,5.1c3.4,0,6.1-3,6.1-6.2V111.3z"/>
		<path d="M149.6,102.6L149.6,102.6c1.3-2.3,3.9-3.8,6.9-3.8v3c-4.1-0.3-6.9,2.1-6.9,6.3v15.8h-2.9V99.3h2.9V102.6z"/>
		<path d="M166.3,124.3c-5.3,0-7.4-2.6-7.3-7.8h3c0,3.4,0.8,5.6,4.5,5.6c2.8,0,4.2-1.6,4.2-4.3c0-6.4-11-4.8-11-12.9
			c0-4.5,3.1-6.1,7.4-6.1c4.9,0,6.4,3.4,6.4,7.1h-2.9c-0.1-3.1-1-4.8-4.3-4.8c-2.1,0-3.7,1.4-3.7,3.5c0,6.1,11,4.5,11,12.7
			C173.6,122,170.9,124.3,166.3,124.3z"/>
	</g>
</g>
</svg>
