<svg width="22" height="22" viewBox="0 0 22 22" xmlns="http://www.w3.org/2000/svg"><title>Shape + Shape</title><g fill="#FFF" fill-rule="evenodd"><path d="M8.77 20.12c.375.924 1.355 1.628 2.475 1.628s2.1-.66 2.473-1.628c-.793.044-1.587.088-2.473.088-.887 0-1.68-.044-2.474-.088z" id="Shape"/><path d="M20.53 15.717h-.372l-2.333-2.64-1.26-6.165c-.374-2.157-2.147-3.874-4.387-4.314v-.044l.327-.97c.14-.44-.14-.836-.654-.836H9.986c-.514 0-.794.397-.654.837l.328.97v.043c-2.24.484-4.013 2.157-4.387 4.314l-1.26 6.164-2.332 2.64h-.373c-.514 0-.934.397-.934.882 0 .484.375 1.012.888 1.188 0 0 4.013 1.453 9.613 1.453s9.615-1.454 9.615-1.454c.466-.176.886-.704.886-1.188 0-.485-.325-.88-.84-.88z"/></g></svg>