<svg width="25" height="25" viewBox="0 0 25 25" xmlns="http://www.w3.org/2000/svg"><title>circle_x5F_remove_1_</title><path d="M21.136 3.864c-4.792-4.792-12.53-4.792-17.272 0-4.792 4.792-4.792 12.53 0 17.272 4.792 4.792 12.53 4.792 17.272 0 4.792-4.742 4.792-12.53 0-17.272zM16.044 18.14c-.2.2-.5.2-.7 0L12.5 15.296 9.655 18.14c-.2.2-.5.2-.7 0L6.86 16.045c-.2-.2-.2-.5 0-.7L9.704 12.5 6.86 9.655c-.2-.2-.2-.5 0-.7L8.955 6.86c.2-.2.5-.2.7 0L12.5 9.704l2.845-2.846c.2-.2.5-.2.7 0l2.096 2.096c.2.2.2.5 0 .7L15.296 12.5l2.846 2.845c.2.2.2.5 0 .7l-2.096 2.096z" fill="#FFF" fill-rule="evenodd"/></svg>